PathFileType	4	(X/Y/Z)	pose_F01_0-96.trc
DataRate	CameraRate	NumFrames	NumMarkers	Units	OrigDataRate	OrigDataStartFrame	OrigNumFrames
30	30	5	21	m	30	24	96
Frame#	Time	CHip			RHip			RKnee			RAnkle			RBigToe			RSmallToe			RHeel			LHip			LKnee			LAnkle			LBigToe			LSmallToe			LHeel			Neck			Nose			RShoulder			RElbow			RWrist			LShoulder			LElbow			LWrist			
		X1	Y1	Z1	X2	Y2	Z2	X3	Y3	Z3	X4	Y4	Z4	X5	Y5	Z5	X6	Y6	Z6	X7	Y7	Z7	X8	Y8	Z8	X9	Y9	Z9	X10	Y10	Z10	X11	Y11	Z11	X12	Y12	Z12	X13	Y13	Z13	X14	Y14	Z14	X15	Y15	Z15	X16	Y16	Z16	X17	Y17	Z17	X18	Y18	Z18	X19	Y19	Z19	X20	Y20	Z20	X21	Y21	Z21	
24	0.8	-0.14649697745113582	1.8792557993405645	-0.5430905566372799	-0.15792316475423046	1.8775191763417993	-0.48652926164236937	-0.17637180836884672	1.731030935051781	-0.4535231321981452	-0.17749173282326966	1.5878473796905637	-0.4300726205438762							-0.17063335403825697	1.578242498482739	-0.4278771315586723	-0.13222581941923553	1.8823029872733152	-0.6021987189408855	-0.12177837106933874	1.7352169263219959	-0.5812499705542733	-0.09558873550257213	1.6041769744773622	-0.561345300294773	-0.13388310921067892	1.5720607813649932	-0.5723759000376949	-0.11840145716187654	1.5751715043661483	-0.5932694327388918	-0.08842681339539318	1.5916481322063019	-0.5624417974930103	-0.1316556441991018	2.033639307615717	-0.5474470772967136	-0.16685398528957984	2.091156477854173	-0.5171363079772983	-0.14159520616800794	2.028506780935436	-0.4680951429662112	-0.18915803237949572	1.9712090566108116	-0.43571419745093687	-0.20245976949233285	2.0298971749352326	-0.4135543850856915	-0.11778124391335983	2.044919020078021	-0.6291314907946922	-0.1113544609319832	1.9648439290498168	-0.6598369070224329	-0.14144487812005607	1.8932691062626261	-0.6721785399089335
25	0.8333333333333334	-0.14233823411084176	1.8820084277021525	-0.5483234291826969	-0.15477351813013338	1.88034841250774	-0.4948658378357372	-0.17467252151578333	1.7308512761692298	-0.4555716078410461	-0.1774806036905828	1.5880525976230668	-0.4301335946787184							-0.16856391341568278	1.5777913731522613	-0.4300575288130026	-0.1286355383929627	1.885126059893579	-0.6103742908328418	-0.11718597242607119	1.7391701975060965	-0.5868174507467722	-0.09587838088734242	1.602876082575185	-0.5606853249197071	-0.13086185265523764	1.5694366432760225	-0.5708419927376697	-0.11614224379481437	1.5748518541987304	-0.5954928042848086	-0.08768483211098477	1.5917331219659405	-0.5592392617319104	-0.1256435573456624	2.0350595718486635	-0.5548882920708372	-0.15996525975852774	2.0910965367376577	-0.5209502594514396	-0.14055110977014493	2.0276145421753946	-0.47383268750323365	-0.18920758547967625	1.9737284016997132	-0.4367118746497403	-0.19358658995509587	2.032148787489419	-0.40675967670913116	-0.11133769071183348	2.0451645740717717	-0.6362233731670617	-1.652063473613948	1.883235390326129	1.0203283200676134	-0.13572094179738808	1.8974529770548452	-0.6831550899556723
26	0.8666666666666667	-0.13737888036972384	1.8795400053333795	-0.5492725513378385	-0.15088169904432008	1.8776776408777738	-0.49031175894436624	-0.1740409858419636	1.7346062115764802	-0.45649444538428124	-0.17642361676788706	1.5903891603234472	-0.4274361529570702							-0.16763768261473014	1.578681991497829	-0.4266466586829854	-0.12492229846220829	1.8812638239093478	-0.6056882621677808	-0.11504132907023666	1.7421780542238599	-0.5894397882861875	-0.09493927749269912	1.6028079006895846	-0.5574610153161723	-0.13386009935681448	1.5693557310469906	-0.5719978801645076	-0.1181767580937215	1.57454912762726	-0.5932630508623732	-0.08668134043866534	1.5915175085616424	-0.5557556538150635	-0.12333598930537697	2.0339135081871533	-0.5567042893833644	-0.15410495111095812	2.088904853545961	-0.527790396161024	-0.13368749838573057	2.0285054876536304	-0.47725701002010956	-0.18798282518803763	1.9805461293215534	-0.4256548481974376	-0.18471341041785885	2.034400400043605	-0.3999649683325708	-0.10489302822903526	2.0442210265810146	-0.6426689614894184	-1.650965894668294	1.88328017579502	1.0192041075869147	-0.1265939444467484	1.904234661575704	-0.6935340639478447
27	0.9	-0.13315165561785686	1.8796870609466003	-0.5539233790233449	-0.14394278793383847	1.8777843925772049	-0.4938499816980053	-0.17479311076254753	1.7343234818677977	-0.45126719691162653	-0.17257072451752556	1.5967997514426886	-0.42392633793484485							-0.16211942983558378	1.58939534320595	-0.4252138723272393	-0.11767107216643069	1.8814861039946646	-0.6097751207535725	-0.11151582881908136	1.7433495695862649	-0.58925341570984	-0.09292391869856119	1.6030427112829537	-0.5598326631529565	-0.13297520996809753	1.5722298973212379	-0.569078866255169	-0.11760293330604206	1.5761910396674783	-0.5897086937546114	-0.08418232611913908	1.5912677877889545	-0.5541671754372178	-0.12046560553271755	2.0361938926209726	-0.556333423065637	-0.153080011818544	2.0873541306047265	-0.524193039543215	-0.13367556050996127	2.0285451951230686	-0.47728169239931956	-0.186758064896399	1.9873638569433938	-0.4145978217451348	-0.17584023088062187	2.036652012597792	-0.39317025995601046	-0.10200495350944423	2.0455197146110073	-0.6423915351773332	-1.6527208195819034	1.8854252914329528	1.0219886532627789	-0.12478707258828335	1.9031568941155166	-0.6957898591919425
28	0.9333333333333333	-0.13094849539818462	1.8809506585678186	-0.556257117236503	-0.1427012055996365	1.8777055558274727	-0.49046828295070444	-0.17633067708269698	1.7373602625058548	-0.4494746850324333	-0.16139426620021938	1.6051649910829966	-0.41376350193621							-0.15503266658624668	1.5978371170079266	-0.4205803489203391	-0.11534345497906158	1.8827235575088863	-0.6121802495908142	-0.11018053498418078	1.738461512983616	-0.5900863629405168	-0.09296571761841747	1.6002460465603972	-0.5594337866050806	-0.13507502757277248	1.5709519335364333	-0.5750319164577192	-0.12046781638385197	1.575292473827148	-0.5907094363006128	-0.08369223973564774	1.5907854815737499	-0.5501332681228324	-0.12058999681229678	2.0350448708789366	-0.556239697805018	-0.15047062498371153	2.0866484624981108	-0.5147100579364546	-0.13489592632036443	2.027085239680593	-0.47201018477846296	-0.19069094467633974	1.9968219653747459	-0.42158423805284073	-0.1755565946253595	2.0416333683218424	-0.3936735918378859	-0.10399441234235851	2.045421361364824	-0.6399508800784157	-0.09492902624597928	1.9689949110873997	-0.6738809521620513	-0.12157793498880771	1.9004435000230995	-0.6945231536379899
